<svg width="911" height="658" viewBox="0 0 911 658" fill="none" xmlns="http://www.w3.org/2000/svg">
<g id="undraw_Ride_a_bicycle_2yok 1" clip-path="url(#clip0)">
<path id="Vector" opacity="0.1" d="M180.641 96.7578C175.921 102.332 174.104 110.17 172.071 117.538C155.706 176.919 115.38 224.681 69.4554 258.798C50.0072 273.249 26.33 292.629 30.5849 318.539C32.8759 332.454 42.9273 342.697 50.3948 354.03C66.0619 377.76 71.1436 410.016 63.6761 438.424C55.1837 470.746 31.4462 500.906 38.7931 533.589C43.3235 553.707 58.7064 568.024 73.495 580.329C96.5664 599.513 120.373 617.485 144.914 634.244C161.365 645.477 178.867 656.407 198.039 657.832C214.921 659.09 231.458 652.845 247.487 646.684C261.492 641.294 275.849 635.686 287.158 624.89C294.54 617.84 300.422 608.745 308.622 602.978C327.881 589.432 352.617 598.016 374.701 603.816C426.81 617.429 482.579 612.459 532.165 589.784C608.226 554.997 666.2 481.945 740.6 442.749C772.589 425.892 807.385 415.431 837.005 393.72C853.693 381.359 868.034 366.256 879.382 349.093C901.775 315.471 913.885 272.603 910.388 230.641C906.892 188.679 887.297 148.242 856.523 124.554C823.578 99.1971 781.968 94.461 744.484 79.2386C705.777 63.5133 671.342 36.4885 633.006 19.6148C601.985 5.99899 568.225 -0.684959 534.204 0.0533395C500.183 0.791638 466.763 8.93345 436.396 23.8814C394.675 44.4182 352.385 92.3319 305.918 95.9699C272.809 98.4846 206.497 66.2292 180.641 96.7578Z" fill="#6C63FF"/>
<path id="Vector_2" d="M6.38226 504.711C6.38226 507.947 6.75262 510.579 7.24357 510.579C7.73451 510.579 8.10487 507.955 8.10487 504.711C8.10487 501.467 7.63977 503.035 7.18328 503.035C6.72678 503.035 6.38226 501.484 6.38226 504.711Z" fill="#FFD037"/>
<path id="Vector_3" d="M587.521 422.338C578.587 422.333 569.69 423.437 561.044 425.624L529.288 330.232L528.874 328.992L531.579 328.22C537.953 314.582 520.959 312.537 520.959 312.537L519.529 313.006C510.546 310.492 494.982 309.159 478.833 308.539V289.494C478.873 279.049 480.813 268.694 484.56 258.907C485.017 257.708 485.422 256.585 485.732 255.512C485.801 255.294 485.87 255.076 485.93 254.866L486.042 254.472C486.119 254.196 486.205 253.911 486.274 253.634C486.343 253.357 486.378 253.248 486.421 253.047C486.464 252.846 486.524 252.653 486.567 252.46L486.627 252.184C486.696 251.899 486.757 251.622 486.817 251.346C486.817 251.228 486.86 251.111 486.886 250.994C486.912 250.876 486.981 250.524 487.024 250.289C487.067 250.055 487.075 249.971 487.101 249.812C487.127 249.652 487.161 249.46 487.187 249.292C487.213 249.124 487.187 249.074 487.23 248.965C487.273 248.856 487.291 248.554 487.317 248.353V248.194C487.317 247.951 487.377 247.708 487.394 247.473C487.411 247.238 487.394 247.263 487.394 247.154C487.394 247.045 487.394 246.811 487.394 246.643C487.394 246.475 487.394 246.475 487.394 246.392C487.394 246.308 487.394 246.04 487.394 245.864C487.394 245.688 487.394 245.512 487.394 245.344C487.394 245.176 487.394 245.21 487.394 245.143C487.394 245.076 487.394 244.866 487.394 244.732C487.394 244.598 487.394 244.556 487.394 244.48C487.394 244.405 487.394 244.279 487.394 244.179C487.394 244.078 487.394 243.969 487.394 243.869C487.394 243.768 487.394 243.667 487.394 243.567C487.394 243.466 487.394 243.391 487.394 243.307C487.062 240.064 487.015 236.8 487.256 233.55L488.462 218.864C492.011 217.807 495.321 216.1 498.212 213.834C498.212 213.834 498.979 191.931 501.287 174.597C502.772 163.813 501.432 152.84 497.392 142.696C493.352 132.552 486.742 123.566 478.178 116.574C476.628 115.325 475.017 114.126 473.338 113.011C473.656 111.826 473.898 110.622 474.061 109.407C474.829 108.037 475.747 106.753 476.8 105.576C478.247 104.185 480.245 103.388 481.899 102.223C485.508 99.5994 487.067 95.3244 488.1 91.2338C490.219 82.8514 490.831 73.7398 487.239 65.7598C483.647 57.7797 474.914 51.2666 465.414 51.6857C462.502 51.8115 459.66 52.524 456.801 52.8509C449.238 53.5969 441.754 51.1744 434.166 50.7302C431.966 50.4675 429.733 50.7561 427.68 51.5684C426.139 52.3895 424.806 53.535 423.778 54.9213C420.305 59.2955 417.923 64.3945 416.819 69.8168C415.889 73.8991 415.889 77.5957 410.695 78.1992C404.847 78.9117 386.079 75.0893 390.024 87.1264C391.91 92.8181 400.962 92.9941 405.605 97.1853C408.016 99.3647 409.127 102.584 411.78 104.528L411.884 104.595C399.825 104.771 379.921 109.415 368.19 135.392C350.499 174.588 339.879 187.363 325.719 197.598C312.248 207.33 305.986 238.671 305.409 241.672C301.68 250.834 299.647 267.658 311.559 295.588C321.654 319.268 330.439 335.387 336.632 347.5L335.417 347.391C332.833 347.199 330.263 346.865 327.717 346.393C317.735 344.549 292.576 340.693 285.806 347.232C277.305 355.413 280.139 369.738 302.8 371.784C307.981 372.207 313.184 372.324 318.381 372.136V408.054L317.89 408.348C313.454 410.921 309.182 413.226 306.305 414.743L305.254 415.297C304.424 413.97 303.732 412.566 303.187 411.105L279.794 426.076L291.405 435.456L279.596 447.334C279.226 447.016 278.864 446.689 278.494 446.37C259.536 430.59 235.397 421.942 210.451 421.994C152.959 421.994 106.362 466.882 106.362 522.247C106.362 577.613 152.967 622.501 210.451 622.501C261.939 622.501 304.694 586.456 313.058 539.197C332.868 540.63 351.282 541.066 363.375 539.347V550.898H416.457V536.933L417.784 536.849C441.667 535.173 429.282 524.921 429.282 524.921C423.804 524.921 417.775 521.954 413.537 519.364C412.047 518.45 410.514 517.62 408.947 516.849C410.385 511.881 409.948 506.576 407.715 501.895L528.788 380.35L547.289 430.142L546.057 430.636C509.202 446.06 483.423 481.442 483.423 522.625C483.423 577.999 530.029 622.878 587.512 622.878C644.995 622.878 691.609 577.957 691.609 522.633C691.609 467.309 644.987 422.338 587.521 422.338ZM593.067 597.747L588.761 533.044C589.557 532.935 590.34 532.744 591.095 532.474L626.667 587.705C616.388 593.475 604.902 596.908 593.067 597.747V597.747ZM523.638 566.833L578.115 528.802L578.218 528.937L555.876 591.712C543.054 586.346 531.928 577.76 523.638 566.833V566.833ZM624.066 455.406L594.17 512.935C592.772 511.671 591.068 510.771 589.217 510.319L588.494 508.148L590.552 446.622C602.255 447.086 613.704 450.084 624.066 455.398V455.406ZM586.918 503.353L568.71 448.675C574.754 447.276 580.946 446.57 587.159 446.571H588.812L586.918 503.353ZM554.55 453.369C554.955 453.193 555.411 453.034 555.773 452.858L578.236 513.412C577.348 514.292 576.619 515.313 576.082 516.43L518.496 485.331C520.662 481.643 523.142 478.138 525.911 474.853L532.337 468.055C538.823 461.959 546.336 456.991 554.55 453.369ZM517.729 486.823L575.557 518.056C575.296 518.979 575.163 519.932 575.161 520.889C575.161 521.032 575.161 521.174 575.161 521.317L508.617 520.177C508.928 508.525 512.037 497.105 517.695 486.832L517.729 486.823ZM598.459 521.082L662.213 499.682C665.602 510.177 666.584 521.269 665.088 532.173C663.593 543.078 659.656 553.53 653.557 562.793L596.814 527.964C597.928 526.257 598.525 524.278 598.537 522.256C598.521 521.866 598.483 521.477 598.425 521.091L598.459 521.082ZM661.696 498.056L598.123 519.397C597.486 517.597 596.618 515.882 595.539 514.292L625.685 456.211C642.579 465.356 655.395 480.266 661.661 498.064L661.696 498.056ZM512.01 335.186L516.48 347.207L439.376 370.325L438.575 354.826L482.502 342.253C482.593 343.212 482.532 344.178 482.321 345.119C483.431 343.987 484.431 342.758 485.31 341.448L511.511 333.954L512.01 335.186ZM215.998 597.387L211.691 532.843C212.562 532.83 213.429 532.72 214.275 532.516L249.588 587.395C239.308 593.146 227.825 596.562 215.998 597.387V597.387ZM146.568 566.49L201.045 528.501L201.149 528.635L178.806 591.368C165.985 586.003 154.859 577.417 146.568 566.49V566.49ZM131.521 519.833C131.838 508.18 134.952 496.76 140.616 486.488L199.426 518.249C199.109 519.123 198.909 520.033 198.832 520.956L131.521 519.833ZM246.996 455.063L219.753 507.545L215.584 511.736C214.284 511.25 212.903 511 211.51 510.998H211.347L213.474 446.286C225.18 446.749 236.632 449.747 246.996 455.063V455.063ZM273.059 476.605C278.034 483 281.925 490.128 284.583 497.721L227.315 516.941L273.059 476.605ZM224.008 519.858L285.16 499.347C285.734 501.196 286.263 503.077 286.745 504.988C286.848 505.424 286.943 505.826 287.038 506.287C259.554 511.845 233.921 517.981 223.198 520.604L224.008 519.858ZM209.572 511.023C207.865 511.091 206.196 511.532 204.689 512.314L181.528 451.383C190.64 447.963 200.323 446.216 210.089 446.228C210.64 446.228 211.191 446.228 211.743 446.228L209.572 511.023ZM203.138 513.287C201.898 514.202 200.866 515.358 200.107 516.681L141.469 484.988C143.631 481.291 146.109 477.777 148.876 474.485L155.319 467.661C162.426 460.989 170.759 455.678 179.883 452.003L203.138 513.287ZM287.133 536.883C285.237 545.972 281.621 554.639 276.47 562.441L220.778 528.258C232.138 530.018 258.873 533.958 287.133 536.883ZM311.998 500.168C308.546 485.45 301.695 471.69 291.964 459.933L294.695 457.527L318.432 480.084V500.436C316.4 500.777 314.353 501.129 312.291 501.493C312.196 501.048 312.11 500.612 312.007 500.177L311.998 500.168ZM318.432 457.326L317.916 456.84L318.432 457.25V457.326ZM336.847 427.795L336.907 427.753L338.208 426.915L338.785 426.537L339.422 426.127L340.146 425.666L340.818 425.247L341.636 424.735L342.316 424.316L343.315 423.713L343.927 423.344L344.995 422.715C345.418 426.518 346.392 430.243 347.889 433.78L348.225 463.814C343.231 458.351 339.367 452.001 336.847 445.113V427.795ZM435.561 296.191C437.654 298.002 439.006 299.125 439.006 299.125C439.006 299.125 443.442 303.015 448.489 308.044C444.002 308.044 439.833 308.044 436.172 308.136L435.561 296.191ZM437.103 326.075C444.294 326.318 453.648 326.561 463.605 326.628C463.674 326.837 463.743 327.047 463.786 327.24C465.819 327.851 467.808 328.596 469.737 329.469L437.817 340.014L437.103 326.075ZM445.216 271.002C445.216 271.002 438.644 254.238 430.626 241.563C434.855 229.51 442.736 216.76 457.455 211.11L457.352 212.259L457.3 212.879C456.835 218.168 456.301 224.614 455.845 231.236V231.622C455.793 232.41 455.738 233.201 455.681 233.994V234.405L455.621 235.377L455.56 236.333L455.509 237.171C455.474 237.73 455.44 238.289 455.405 238.848V239.325C455.405 239.806 455.379 240.286 455.328 240.767V241.329C455.299 241.888 455.27 242.463 455.242 243.055V243.156C455.207 243.799 455.178 244.436 455.155 245.067V245.352C455.155 245.911 455.133 246.492 455.087 247.096V247.23C455.035 248.51 454.995 249.759 454.966 250.977V251.111C454.966 252.326 454.914 253.5 454.897 254.632V254.732C454.897 255.872 454.897 256.962 454.897 257.993C454.897 258.49 454.897 258.976 454.897 259.451V259.544C454.897 260.482 454.957 261.363 455.009 262.176V262.327C455.061 263.114 455.13 263.844 455.207 264.489V264.64C455.242 264.914 455.279 265.174 455.319 265.42V265.554C455.371 265.822 455.414 266.082 455.474 266.308V266.4C455.517 266.593 455.569 266.769 455.621 266.929L455.664 267.071C455.719 267.234 455.785 267.394 455.862 267.549C457.335 270.382 458.041 279.1 458.36 288.329C450.771 278.79 445.207 270.986 445.207 270.986L445.216 271.002ZM336.847 496.279V472.112L348.423 481.45L348.586 496.296C344.883 496.648 340.947 497.134 336.838 497.653L336.847 496.279ZM336.847 370.778C339.844 370.409 342.79 369.94 345.641 369.487C346.066 371.561 346.228 373.678 346.123 375.79V388.574H346.717C343.308 390.677 340.013 392.951 336.847 395.388V370.786V370.778ZM261.965 465.071L223.887 503.353L248.538 455.867C252.9 458.231 257.021 460.993 260.846 464.116C261.233 464.426 261.595 464.795 261.965 465.071ZM131.495 521.912C131.495 521.786 131.495 521.661 131.495 521.535L198.832 522.692C198.94 524.208 199.377 525.685 200.115 527.025L145.569 565.106C136.402 552.47 131.485 537.38 131.495 521.912V521.912ZM210.098 597.613C199.936 597.624 189.867 595.729 180.443 592.031L202.518 530.001C204.558 531.777 207.189 532.774 209.925 532.809L214.232 597.496C212.862 597.571 211.484 597.613 210.098 597.613ZM251.113 586.482L215.98 531.937C217.33 531.378 218.556 530.57 219.589 529.557L275.488 563.874C269.135 573.034 260.82 580.747 251.113 586.482V586.482ZM393.383 490.025C391.346 489.465 389.238 489.183 387.121 489.187H386.415H385.709C382.128 489.177 378.596 489.99 375.399 491.559C373.9 482.557 373.142 471.09 376.493 462.263C378.487 456.931 379.986 451.435 380.971 445.842L388.163 406.26L521.984 362.069L523.62 366.478L393.383 490.025ZM508.565 522.256C508.565 522.13 508.565 522.004 508.565 521.879L575.342 523.027C575.835 524.515 576.439 525.967 577.15 527.369L522.604 565.45C513.45 552.81 508.545 537.72 508.565 522.256V522.256ZM587.167 597.957C577.006 597.968 566.937 596.073 557.513 592.374L579.588 530.345C581.628 532.12 584.259 533.118 586.995 533.153L591.302 597.848C589.929 597.921 588.551 597.957 587.167 597.957V597.957ZM628.191 586.834L592.714 531.761C593.867 531.135 594.899 530.318 595.763 529.347L652.609 564.226C646.244 573.39 637.913 581.103 628.191 586.834V586.834Z" fill="url(#paint0_linear)"/>
<path id="Vector_4" d="M219.83 601.008L214.43 518.911L214.318 518.735L208.875 520.579L183.828 591.704L143.993 564.218L207.445 519.448L207.505 519.272L207.867 519.146L211.958 516.254L145.431 479.95L129.135 497.385L131.719 513.731L208.22 515.089V516.765L130.289 515.407L127.344 496.849L149.651 472.993L183.027 435.104L183.621 436.672L190.684 429.128L216.919 433.704V432.69L218.642 432.74V434.006L257.71 440.813L221.286 511.736L215.972 515.483V515.902V516.371L300.207 487.804L290.207 564.26L218.719 519.942L216.204 518.568L258.356 584.688L219.83 601.008ZM216.385 521.929L221.424 598.527L255.919 583.958L216.385 521.929ZM146.981 564.201L182.975 589.038L206.523 522.197L146.981 564.201ZM217.884 517.545L219.684 518.526L288.89 561.443L298.192 490.302L217.884 517.545ZM211.769 511.51L213.93 514.904L214.309 514.636L216.893 435.398L191.278 430.938L184.25 438.482L211.769 511.51ZM146.809 478.768L211.269 513.974L210.149 512.189L182.949 439.874L150.917 474.133L146.809 478.768ZM218.642 435.691L216.058 513.412L219.951 510.663L255.187 442.078L218.642 435.691Z" fill="#535461"/>
<path id="Vector_5" d="M333.324 464.638L296.54 429.311L285.046 440.647L321.829 475.974L333.324 464.638Z" fill="#6C63FF"/>
<path id="Vector_6" opacity="0.1" d="M333.324 464.638L296.54 429.311L285.046 440.647L321.829 475.974L333.324 464.638Z" fill="black"/>
<path id="Vector_7" d="M305.315 412.405C305.315 412.405 326.666 401.441 334.918 394.383C339.885 390.153 345.226 386.358 350.878 383.041L377.664 367.173L433.649 362.982L436.233 372.203C436.233 372.203 440.539 385.615 397.474 397.35C354.409 409.085 332.876 427.526 332.876 427.526C332.876 427.526 305.315 436.714 305.315 412.405Z" fill="#DB8B8B"/>
<path id="Vector_8" opacity="0.1" d="M335.159 425.708C333.634 426.839 332.876 427.493 332.876 427.493C332.876 427.493 305.315 436.714 305.315 412.405C305.315 412.405 306.65 411.717 308.76 410.569C310.892 413.948 313.878 416.738 317.434 418.674C320.989 420.609 324.995 421.625 329.069 421.625H331.989L335.159 425.708Z" fill="black"/>
<path id="Vector_9" opacity="0.05" d="M435.423 376.83C433.029 381.767 424.769 389.881 397.474 397.316C362.497 406.847 341.722 420.787 335.159 425.708C333.634 426.839 332.876 427.493 332.876 427.493C332.876 427.493 305.315 436.714 305.315 412.405C305.315 412.405 306.65 411.717 308.76 410.569C315.159 407.157 328.708 399.672 334.892 394.349C339.858 390.118 345.199 386.323 350.852 383.008L377.638 367.14L387.612 366.394L433.623 362.949L436.207 372.169C436.207 372.169 436.81 373.971 435.423 376.83Z" fill="black"/>
<path id="Vector_10" d="M305.745 406.956L282.921 421.625L349.758 476.111C349.758 476.111 359.577 470.243 354.409 463.537C354.409 463.537 337.183 449.287 336.322 429.169L331.154 422.464H328.234C323.297 422.464 318.481 420.972 314.453 418.195C310.424 415.417 307.382 411.49 305.745 406.956V406.956Z" fill="#ABB1D1"/>
<path id="Vector_11" opacity="0.1" d="M435.423 376.83C421.642 370.35 388 369.655 388 369.655L387.638 366.394L433.649 362.949L436.233 372.169C436.233 372.169 436.81 373.971 435.423 376.83Z" fill="black"/>
<path id="Vector_12" d="M388 367.978C388 367.978 428.481 368.816 438.817 377.199L433.649 275.772H377.664L388 367.978Z" fill="#ABB1D1"/>
<path id="Vector_13" opacity="0.05" d="M388 367.559C388 367.559 428.481 368.397 438.817 376.78L433.649 275.353H377.664L388 367.559Z" fill="black"/>
<g id="frontWheel">
<path id="Vector_14" d="M582.525 417.954C573.384 417.944 564.283 419.139 555.471 421.508C550.927 422.728 546.477 424.26 542.156 426.093C519.133 435.806 500.63 453.484 490.225 475.707C479.821 497.93 478.255 523.118 485.831 546.4C493.406 569.681 509.585 589.401 531.236 601.745C552.888 614.088 578.474 618.178 603.045 613.223C627.616 608.268 649.426 594.62 664.255 574.92C679.084 555.219 685.879 530.866 683.325 506.572C680.771 482.278 669.049 459.769 650.428 443.4C631.807 427.03 607.609 417.964 582.516 417.954H582.525ZM582.18 590.706C564.712 590.7 547.772 584.878 534.174 574.207C520.575 563.537 511.136 548.661 507.424 532.049C503.712 515.437 505.95 498.089 513.768 482.886C521.585 467.683 534.511 455.54 550.398 448.474C554.44 446.674 558.636 445.223 562.939 444.14C573.457 441.483 584.437 441.037 595.146 442.831C605.856 444.624 616.05 448.617 625.05 454.544C634.051 460.471 641.651 468.195 647.345 477.203C653.039 486.21 656.697 496.295 658.075 506.786C659.453 517.276 658.519 527.932 655.336 538.044C652.153 548.156 646.794 557.493 639.614 565.432C632.435 573.371 623.601 579.732 613.699 584.09C603.798 588.447 593.056 590.703 582.189 590.706H582.18Z" fill="#535461"/>
<path id="Vector_15" d="M586.909 601.344L581.517 519.28L581.405 519.104L575.962 520.948L550.907 592.039L511.071 564.545L574.541 519.775L574.601 519.599L574.963 519.473L579.054 516.581L512.527 480.277L496.222 497.712L498.806 514.058L575.29 515.382V517.059L497.359 515.701L494.431 497.167L516.73 473.319L550.08 435.456L550.674 437.024L557.737 429.48L584.041 434.065V433.05L585.763 433.101V434.367L624.832 441.173L588.373 512.13L583.059 515.877V516.296V516.765L667.303 488.198L657.303 564.654L585.815 520.336L583.3 518.962L625.452 585.09L586.909 601.344ZM583.464 522.264L588.502 598.862L622.998 584.294L583.464 522.264ZM514.069 564.545L550.062 589.382L573.61 522.541L514.069 564.545ZM584.971 517.889L586.771 518.869L655.977 561.787L665.279 490.646L584.971 517.889ZM578.856 511.853L581.018 515.248L581.397 514.98L583.981 435.741L558.365 431.265L551.337 438.809L578.856 511.853ZM513.922 479.12L578.382 514.326L577.262 512.541L550.062 440.226L518.022 474.493L513.922 479.12ZM585.729 436.043L583.145 513.739L587.038 510.99L622.274 442.405L585.729 436.043Z" fill="#535461"/>
<path id="Vector_16" d="M582.18 526.975C588.274 526.975 593.214 522.168 593.214 516.237C593.214 510.307 588.274 505.499 582.18 505.499C576.087 505.499 571.147 510.307 571.147 516.237C571.147 522.168 576.087 526.975 582.18 526.975Z" fill="#535461"/>
</g>
<path id="Vector_17" d="M420.523 305.915C420.523 305.915 521.855 302.562 523.922 315.312C525.989 328.061 422.59 322.688 422.59 322.688C422.59 322.688 414.321 314.633 420.523 305.915Z" fill="#535461"/>
<path id="Vector_18" opacity="0.05" d="M420.523 305.915C420.523 305.915 521.855 302.562 523.922 315.312C525.989 328.061 422.59 322.688 422.59 322.688C422.59 322.688 414.321 314.633 420.523 305.915Z" fill="black"/>
<path id="Vector_19" d="M338.492 356.905H320.568V508.525H338.492V356.905Z" fill="#6C63FF"/>
<path id="Vector_20" opacity="0.1" d="M338.492 356.897V368.573C332.532 369.328 326.434 369.805 320.568 369.99V356.897H338.492Z" fill="black"/>
<path id="Vector_21" d="M337.148 344.331C334.634 344.142 332.132 343.815 329.655 343.351C319.94 341.54 295.444 337.743 288.855 344.189C280.587 352.236 283.343 366.327 305.401 368.338C327.459 370.35 365.373 364.986 372.961 356.93C372.961 356.897 359.241 345.983 337.148 344.331Z" fill="#535461"/>
<path id="Vector_22" d="M333.669 398.498L521.863 341.473L528.065 355.564L335.047 419.966L333.669 398.498Z" fill="#6C63FF"/>
<path id="Vector_23" d="M389.507 488.399L525.309 358.246L532.888 368.976L403.288 500.47L389.507 488.399Z" fill="#6C63FF"/>
<path id="Vector_24" opacity="0.1" d="M562.93 444.14C558.627 445.223 554.431 446.674 550.39 448.474L542.156 426.085C546.477 424.251 550.927 422.719 555.471 421.5L562.93 444.14Z" fill="black"/>
<path id="Vector_25" d="M585.97 509.867L576.324 515.231L509.021 332.219L506.007 324.029L521.863 315.303L525.834 327.357L585.97 509.867Z" fill="#6C63FF"/>
<path id="Vector_26" opacity="0.1" d="M525.834 327.357L509.021 332.219L506.007 324.029L521.863 315.303L525.834 327.357Z" fill="black"/>
<path id="Vector_27" d="M423.279 341.473L517.721 309.938C517.721 309.938 534.266 311.95 528.056 325.37L432.934 352.873C432.934 352.873 418.464 354.214 423.279 341.473Z" fill="#535461"/>
<path id="Vector_28" d="M314.307 494.518C310.852 479.582 303.859 465.637 293.885 453.797C290.183 449.397 286.099 445.314 281.681 441.592C264.69 427.316 243.31 418.934 220.896 417.762C198.481 416.59 176.301 422.694 157.837 435.116C139.373 447.539 125.669 465.576 118.877 486.398C112.085 507.219 112.589 529.646 120.309 550.159C128.03 570.672 142.531 588.109 161.535 599.734C180.54 611.359 202.972 616.514 225.313 614.39C247.653 612.266 268.636 602.982 284.969 587.997C301.302 573.012 312.061 553.173 315.556 531.594C316.369 526.513 316.778 521.379 316.779 516.237C316.784 508.931 315.955 501.647 314.307 494.518ZM215.093 590.371C199.39 590.355 184.072 585.632 171.224 576.846C158.376 568.059 148.62 555.634 143.283 541.261C137.946 526.887 137.287 511.263 141.396 496.513C145.504 481.762 154.181 468.601 166.247 458.819C178.312 449.037 193.18 443.109 208.829 441.84C224.479 440.572 240.149 444.025 253.711 451.73C267.273 459.435 278.067 471.018 284.626 484.904C291.186 498.79 293.191 514.304 290.371 529.339C287.141 546.475 277.839 561.967 264.085 573.118C250.331 584.269 232.995 590.375 215.093 590.371V590.371Z" fill="#535461"/>
<path id="Vector_29" opacity="0.1" d="M316.779 516.237C316.778 521.379 316.369 526.513 315.556 531.594C307.287 531.015 298.743 530.177 290.371 529.339C292.231 519.372 291.999 509.141 289.691 499.263C297.847 497.586 306.176 495.985 314.307 494.535C315.954 501.658 316.783 508.936 316.779 516.237V516.237Z" fill="black"/>
<path id="Vector_30" opacity="0.1" d="M338.492 490.688V508.517H320.568V493.429C326.77 492.381 332.799 491.451 338.492 490.688Z" fill="black"/>
<path id="Vector_31" d="M222.681 515.927C222.681 515.927 367.449 479.045 379.163 493.119C390.877 507.193 403.288 525.986 366.786 532.692C330.284 539.398 219.951 521.283 219.951 521.283L222.681 515.927Z" fill="#6C63FF"/>
<path id="Vector_32" opacity="0.1" d="M293.885 453.797L275.488 470.184C272.23 466.114 268.547 462.383 264.497 459.053L281.672 441.592C286.094 445.313 290.18 449.396 293.885 453.797V453.797Z" fill="black"/>
<path id="Vector_33" d="M217.858 508.525L326.081 398.498L329.535 423.989L223.37 518.584L217.858 508.525Z" fill="#6C63FF"/>
<path id="Vector_34" opacity="0.1" d="M216.48 526.64C222.573 526.64 227.513 521.832 227.513 515.902C227.513 509.972 222.573 505.164 216.48 505.164C210.386 505.164 205.447 509.972 205.447 515.902C205.447 521.832 210.386 526.64 216.48 526.64Z" fill="black"/>
<path id="Vector_35" d="M215.093 526.64C221.187 526.64 226.126 521.832 226.126 515.902C226.126 509.972 221.187 505.164 215.093 505.164C209 505.164 204.06 509.972 204.06 515.902C204.06 521.832 209 526.64 215.093 526.64Z" fill="#535461"/>
<path id="Vector_36" opacity="0.1" d="M581.491 525.634C587.585 525.634 592.525 520.826 592.525 514.896C592.525 508.966 587.585 504.158 581.491 504.158C575.398 504.158 570.458 508.966 570.458 514.896C570.458 520.826 575.398 525.634 581.491 525.634Z" fill="black"/>
<path id="Vector_37" opacity="0.1" d="M386.053 526.64C398.235 526.64 408.111 517.029 408.111 505.172C408.111 493.316 398.235 483.705 386.053 483.705C373.871 483.705 363.995 493.316 363.995 505.172C363.995 517.029 373.871 526.64 386.053 526.64Z" fill="black"/>
<path id="Vector_38" d="M387.44 526.64C399.622 526.64 409.498 517.029 409.498 505.172C409.498 493.316 399.622 483.705 387.44 483.705C375.258 483.705 365.382 493.316 365.382 505.172C365.382 517.029 375.258 526.64 387.44 526.64Z" fill="#535461"/>
<path id="Vector_39" d="M381.55 503.56L381.544 503.565C378.953 505.45 378.424 509.022 380.361 511.543L397.868 534.327C399.805 536.848 403.475 537.363 406.066 535.478L406.073 535.473C408.663 533.588 409.193 530.016 407.255 527.495L389.748 504.711C387.811 502.19 384.141 501.674 381.55 503.56Z" fill="#6C63FF"/>
<path id="Vector_40" d="M487.049 207.036L485 232.276C484.764 235.473 484.807 238.684 485.129 241.874C485.396 244.698 485.129 249.644 482.286 257.188C478.637 266.825 476.751 277.01 476.714 287.281V316.007L456.904 312.654C456.904 312.654 457.765 272.419 454.32 265.713C450.875 259.007 456.904 199.492 456.904 199.492L487.049 207.036Z" fill="#DB8B8B"/>
<path id="Vector_41" opacity="0.05" d="M486.033 219.543L485 232.276C484.767 235.47 484.813 238.678 485.137 241.865C485.404 244.69 485.137 249.636 482.295 257.188C478.646 266.825 476.76 277.01 476.723 287.281V316.007L456.913 312.654C456.913 312.654 457.774 272.419 454.329 265.713C451.891 260.96 454.199 229.719 455.758 211.89C456.404 204.555 456.913 199.492 456.913 199.492L487.058 207.036L486.033 219.543Z" fill="black"/>
<path id="Vector_42" d="M388.878 399.831L381.428 441.072C380.489 446.579 379.047 451.993 377.121 457.25C372.755 468.868 375.545 485.155 377.664 494.041C378.603 497.964 379.387 500.445 379.387 500.445L356.993 512.18L350.102 507.151V503.798L349.241 429.195C344.073 417.459 345.796 399.856 349.241 393.15C350.221 390.947 350.91 388.632 351.291 386.26C353.014 377.274 353.548 364.65 353.548 364.65C353.548 364.65 367.328 342.018 383.693 357.106C389.722 362.664 392.013 369.931 392.496 376.889C393.34 388.8 388.878 399.831 388.878 399.831Z" fill="#DB8B8B"/>
<path id="Vector_43" opacity="0.1" d="M392.496 376.863C380.549 383.77 359.766 385.724 351.291 386.235C353.014 377.249 353.548 364.625 353.548 364.625C353.548 364.625 367.328 341.993 383.693 357.081C389.722 362.638 392.013 369.906 392.496 376.863Z" fill="black"/>
<path id="Vector_44" d="M421.591 356.243C412.431 360.99 403.776 366.605 395.751 373.007C381.971 383.905 347.519 384.743 347.519 384.743V372.169C348.38 357.081 333.738 340.316 313.928 293.375C301.275 263.4 304.781 246.434 308.967 238.051C311.344 233.315 313.928 231.345 313.928 231.345L421.591 251.463L425.441 262.695L433.649 286.669C433.649 286.669 403.503 288.345 398.335 290.86C393.168 293.375 396.613 316.007 396.613 316.007C391.445 339.478 421.591 356.243 421.591 356.243Z" fill="#ABB1D1"/>
<path id="Vector_45" opacity="0.1" d="M487.049 207.036L486.033 219.543C471.047 223.734 460.349 210.389 460.349 210.389C458.786 210.797 457.25 211.298 455.75 211.89C456.396 204.555 456.904 199.492 456.904 199.492L487.049 207.036Z" fill="black"/>
<path id="Vector_46" opacity="0.1" d="M425.441 262.695C425.036 266.61 425.036 269.066 425.036 269.066C425.036 269.066 405.226 284.993 371.635 260.684C338.044 236.375 307.899 243.081 307.899 243.081C307.899 243.081 308.252 241.136 308.967 238.051C311.344 233.315 313.928 231.345 313.928 231.345L421.591 251.463L425.441 262.695Z" fill="black"/>
<path id="Vector_47" d="M498.66 174.303C496.412 191.361 495.663 212.862 495.663 212.862C475.853 227.95 460.349 208.671 460.349 208.671C441.642 213.558 432.848 229.493 428.705 243.399C426.486 250.921 425.253 258.686 425.036 266.509C425.036 266.509 419.799 270.701 410.152 271.539C401.031 272.285 387.957 269.971 371.635 258.127C338.044 233.818 307.899 240.524 307.899 240.524C307.899 240.524 313.928 206.994 327.709 196.936C341.489 186.877 351.825 174.303 369.051 135.744C386.277 97.1853 421.591 106.406 421.591 106.406C421.591 106.406 423.313 98.8618 455.181 106.406C462.943 108.386 470.128 112.09 476.171 117.228C493.216 131.176 501.485 152.811 498.66 174.303Z" fill="white"/>
<path id="Vector_48" d="M466.697 125.308C466.654 126.423 466.559 127.664 466.404 129.047C464.681 144.135 462.959 142.459 444.01 145.812C432.228 147.899 426.104 138.318 423.158 130.774C422.092 128.041 421.288 125.218 420.755 122.341L462.098 115.635C462.098 115.635 467.05 114.285 466.697 125.308Z" fill="#DB8B8B"/>
<path id="Vector_49" opacity="0.05" d="M428.705 243.441C426.486 250.963 425.253 258.728 425.036 266.551C425.036 266.551 419.799 270.742 410.152 271.581C409.881 271.047 409.673 270.484 409.532 269.904C407.81 262.36 394.89 248.948 394.89 248.948C386.277 241.404 384.554 227.992 384.554 227.992L370.343 187.338L365.606 183.566C365.606 183.566 385.416 168.477 402.642 181.051C419.868 193.625 414.7 220.448 414.7 220.448L418.145 229.669C421.72 232.603 425.354 237.775 428.705 243.441Z" fill="black"/>
<path id="Vector_50" d="M368.19 182.727L387.138 227.154C387.138 227.154 388.861 240.566 397.474 248.11C397.474 248.11 410.394 261.522 412.116 269.066C413.839 276.61 437.955 296.728 437.955 296.728C437.955 296.728 460.349 316.846 462.072 324.39C462.072 324.39 482.743 330.257 480.159 341.993C480.159 341.993 495.663 326.904 480.159 312.654C464.656 298.404 443.984 269.066 443.984 269.066C443.984 269.066 431.926 238.051 420.729 228.831L417.284 219.61C417.284 219.61 422.452 192.786 405.226 180.213C388 167.639 368.19 182.727 368.19 182.727Z" fill="#DB8B8B"/>
<path id="Vector_51" opacity="0.1" d="M379.387 500.42L356.993 512.155L350.102 507.126V503.773C357.84 503.238 365.358 501.03 372.109 497.31C374.176 496.17 376.122 495.047 377.681 494.057C378.586 497.938 379.387 500.42 379.387 500.42Z" fill="black"/>
<path id="Vector_52" opacity="0.1" d="M405.226 147.522L417.284 193.625C417.284 193.625 380.248 199.492 372.496 193.625C364.745 187.757 350.102 186.08 350.102 186.08C350.102 186.08 365.606 142.492 374.219 137.463C382.832 132.433 405.226 147.522 405.226 147.522Z" fill="black"/>
<path id="Vector_53" d="M405.226 145.845L417.284 191.948C417.284 191.948 380.248 197.816 372.496 191.948C364.745 186.08 350.102 184.404 350.102 184.404C350.102 184.404 365.606 140.816 374.219 135.786C382.832 130.757 405.226 145.845 405.226 145.845Z" fill="white"/>
<path id="Vector_54" opacity="0.1" d="M466.697 124.47C464.285 127.711 461.216 130.437 457.681 132.481C454.146 134.525 450.219 135.843 446.141 136.355C442.062 136.867 437.92 136.562 433.967 135.458C430.015 134.354 426.336 132.474 423.158 129.935C422.092 127.202 421.288 124.379 420.755 121.503L462.098 114.797C462.098 114.797 467.05 113.447 466.697 124.47Z" fill="black"/>
<path id="Vector_55" d="M472.407 106.448C472.407 114.229 469.231 121.691 463.578 127.193C457.925 132.695 450.257 135.786 442.262 135.786C434.267 135.786 426.599 132.695 420.946 127.193C415.292 121.691 412.116 114.229 412.116 106.448C412.116 105.962 412.116 105.475 412.116 104.989C412.315 97.2083 415.682 89.8228 421.476 84.4576C427.269 79.0923 435.016 76.1868 443.011 76.3802C451.006 76.5737 458.595 79.8501 464.108 85.4889C469.621 91.1277 472.606 98.6668 472.407 106.448V106.448Z" fill="#DB8B8B"/>
<path id="Vector_56" opacity="0.1" d="M472.407 106.448C472.41 109.152 472.027 111.843 471.27 114.445C468.94 114.939 466.51 114.722 464.311 113.824C461.09 112.592 458.325 110.471 455.233 108.946C446.525 104.654 436.164 105.501 426.517 106.917C421.728 107.621 416.294 108.275 412.53 105.308C412.4 105.208 412.276 105.102 412.159 104.989C412.358 97.2083 415.725 89.8228 421.519 84.4576C427.312 79.0923 435.059 76.1868 443.054 76.3802C451.049 76.5737 458.638 79.8501 464.151 85.4889C469.664 91.1277 472.649 98.6668 472.45 106.448H472.407Z" fill="black"/>
<path id="Vector_57" d="M390.308 88.3C392.143 93.8994 400.954 94.0754 405.476 98.1996C407.827 100.345 408.921 103.514 411.505 105.425C415.096 108.091 420.281 107.504 424.855 106.867C434.062 105.593 443.95 104.83 452.253 108.694C455.199 110.061 457.843 111.972 460.918 113.087C463.992 114.202 467.808 114.336 470.306 112.357C472.304 110.773 473.036 108.166 474.845 106.423C476.249 105.048 478.204 104.277 479.806 103.07C483.32 100.488 484.836 96.28 485.835 92.2565C487.902 83.9747 488.496 75.0474 484.974 67.1932C481.451 59.3389 472.976 52.9431 463.725 53.3539C460.892 53.4796 458.127 54.1921 455.302 54.4939C447.938 55.2231 440.66 52.8174 433.27 52.4066C431.126 52.1528 428.952 52.4415 426.956 53.2449C425.452 54.0587 424.154 55.1901 423.158 56.5559C419.775 60.869 417.458 65.8829 416.388 71.2083C415.527 75.2235 415.484 78.8614 410.428 79.4817C404.683 80.2194 386.424 76.4557 390.308 88.3Z" fill="#472727"/>
<path id="Vector_58" opacity="0.05" d="M331.584 196.558C331.584 196.558 353.978 202.426 360.869 217.514C367.759 232.603 386.398 235.36 386.398 235.36" fill="black"/>
<path id="Vector_59" d="M415.992 528.501H364.314V544.427H415.992V528.501Z" fill="#6C63FF"/>
<path id="Vector_60" opacity="0.1" d="M415.992 528.501H364.314V544.427H415.992V528.501Z" fill="black"/>
<path id="Vector_61" d="M372.074 498.944C376.699 496.43 380.756 493.915 381.109 492.875C381.109 492.875 392.78 504.862 403.176 508.584C406.671 509.841 410.018 511.46 413.158 513.412C417.275 515.927 423.149 518.886 428.481 518.886C428.481 518.886 440.539 528.945 417.284 530.621C394.029 532.298 339.767 526.43 339.767 526.43L343.212 505.474C353.278 506.049 363.301 503.781 372.074 498.944Z" fill="#ABB1D1"/>
</g>
<defs>
<linearGradient id="paint0_linear" x1="398.981" y1="622.853" x2="398.981" y2="50.705" gradientUnits="userSpaceOnUse">
<stop stop-color="#808080" stop-opacity="0.25"/>
<stop offset="0.54" stop-color="#808080" stop-opacity="0.12"/>
<stop offset="1" stop-color="#808080" stop-opacity="0.1"/>
</linearGradient>
<clipPath id="clip0">
<rect width="911" height="658" fill="white"/>
</clipPath>
</defs>
</svg>
