<svg xmlns="http://www.w3.org/2000/svg" xmlns:xlink="http://www.w3.org/1999/xlink" width="675.466" height="670.711" viewBox="0 0 675.466 670.711">
  <defs>
    <linearGradient id="linear-gradient" x1="0.719" y1="0.134" x2="0.149" y2="0.888" gradientUnits="objectBoundingBox">
      <stop offset="0" stop-color="#30eaf1" stop-opacity="0.78"/>
      <stop offset="0.084" stop-color="#2cc9de" stop-opacity="0.788"/>
      <stop offset="0.121" stop-color="#29afd0" stop-opacity="0.792"/>
      <stop offset="0.532" stop-color="#18187a" stop-opacity="0.82"/>
      <stop offset="0.782" stop-color="#18795f" stop-opacity="0.788"/>
      <stop offset="1" stop-color="#187579" stop-opacity="0.78"/>
    </linearGradient>
  </defs>
  <g id="undraw_refreshing_beverage_td3r" transform="translate(53.768 30.076)">
    <path id="Path_17" data-name="Path 17" d="M159.5,451.5s-66.5,54-43,128,39.5,36,26,97-18,124.5,93,130.5,110.5-31.5,263-71,188.5-95,200-195.5,139-100,66-224S610,288.5,532.5,212s-123-93-213-56.5S86,262,142.5,351.5,159.5,451.5,159.5,451.5Z" transform="translate(-165.24 -167)" fill="url(#linear-gradient)"/>
    <circle id="Ellipse_1" data-name="Ellipse 1" cx="57" cy="57" r="57" transform="translate(72 55.437)" fill="#3f3d56"/>
    <circle id="Ellipse_2" data-name="Ellipse 2" cx="57" cy="57" r="57" transform="translate(399 74.437)" fill="#3f3d56"/>
    <path id="Path_1" data-name="Path 1" d="M800,216.718a57,57,0,0,0-51.9,33.438,56.992,56.992,0,0,1,89.8,66.124A56.991,56.991,0,0,0,800,216.718Z" transform="translate(-343 -144.282)" fill="#6c63ff"/>
    <path id="Path_2" data-name="Path 2" d="M471,197.718a57,57,0,0,1,51.9,33.438,56.992,56.992,0,0,0-89.8,66.124A56.991,56.991,0,0,1,471,197.718Z" transform="translate(-343 -144.282)" fill="#6c63ff"/>
    <path id="Path_3" data-name="Path 3" d="M637,540.718a146.505,146.505,0,1,1-42.91-104.09A147.12,147.12,0,0,1,637,540.718Z" transform="translate(-343 -144.282)" fill="#3f3d56"/>
    <path id="Path_4" data-name="Path 4" d="M637,540.718a146.5,146.5,0,0,1-13.21,60.99,174.121,174.121,0,0,1-169.26-203.68A147.12,147.12,0,0,1,637,540.718Z" transform="translate(-343 -144.282)" fill="#6c63ff"/>
    <circle id="Ellipse_3" data-name="Ellipse 3" cx="174" cy="174" r="174" transform="translate(109 87.437)" fill="#3f3d56"/>
    <path id="Path_5" data-name="Path 5" d="M668.284,411.67A57,57,0,0,1,747.9,399.9a57,57,0,1,0-79.62,11.77Z" transform="translate(-343 -144.282)" fill="#fff"/>
    <path id="Path_6" data-name="Path 6" d="M535.284,422.67A57,57,0,0,1,614.9,410.9a57,57,0,1,0-79.621,11.77Z" transform="translate(-343 -144.282)" fill="#fff"/>
    <circle id="Ellipse_4" data-name="Ellipse 4" cx="21" cy="21" r="21" transform="translate(209 200.437)" fill="#3f3d56"/>
    <circle id="Ellipse_5" data-name="Ellipse 5" cx="21" cy="21" r="21" transform="translate(345 184.437)" fill="#3f3d56"/>
    <circle id="Ellipse_6" data-name="Ellipse 6" cx="11" cy="11" r="11" transform="translate(285 256.437)" fill="#ff6584"/>
    <path id="Path_7" data-name="Path 7" d="M474,723.089V674.718H458v48.371a24.006,24.006,0,0,0-16,22.629h48a24,24,0,0,0-16-22.628Z" transform="translate(-343 -144.282)" fill="#3f3d56"/>
    <path id="Path_8" data-name="Path 8" d="M533,723.089V674.718H517v48.371a24.006,24.006,0,0,0-16,22.629h48a24,24,0,0,0-16-22.628Z" transform="translate(-343 -144.282)" fill="#3f3d56"/>
    <path id="Path_9" data-name="Path 9" d="M554.862,248.4c-7.25-11.672-12.12-25.383-10.611-39.041s10.455-26.984,23.626-30.9,29.487,4.195,31.969,17.709a111.128,111.128,0,0,1,58.879-49.037c11.511-4.056,26.81-4.976,33.466,5.254,3.294,5.063,3.647,11.947,8.06,16.072,6.918,6.467,18.011,1.912,27.465,2.465,13.294.777,24,13.184,25.671,26.4s-4.177,26.488-12.813,36.624S720.7,251.606,709.62,258.991" transform="translate(-343 -144.282)" fill="#3f3d56"/>
    <path id="Path_10" data-name="Path 10" d="M658.128,451.995c.716-.757,1.456-1.49,2.228-2.189q.512-.464,1.041-.91.33-.278.666-.549c.387-.312.51-.388.04-.04a43.616,43.616,0,0,1,5.358-3.43q1.289-.692,2.624-1.3c.209-.095.42-.186.63-.279-.943.42-.2.086.039-.011q.8-.321,1.613-.612a46.363,46.363,0,0,1,6.156-1.729c.963-.2,1.932-.356,2.9-.511.654-.1-.823.091-.164.023.288-.03.575-.068.862-.1q.863-.09,1.73-.149a48.372,48.372,0,0,1,6.247-.022c1.04.063,2.074.169,3.108.291-1.043-.123.152.028.518.089q.854.14,1.7.312a45.524,45.524,0,0,1,5.993,1.641q.732.256,1.455.538c.268.1.533.213.8.32-.134-.054-.877-.39-.125-.048.941.427,1.873.867,2.786,1.352a44.006,44.006,0,0,1,5.369,3.423c.519.381-.584-.483-.092-.067.22.186.449.363.67.548q.532.445,1.048.91c.88.793,1.724,1.626,2.535,2.488q1.112,1.181,2.14,2.437c-.009-.011.772.957.356.435-.349-.438.144.191.222.3q.621.831,1.206,1.689a52.359,52.359,0,0,1,3.438,5.835q.726,1.432,1.371,2.9c.095.215.422,1.01.067.145.1.234.192.468.286.7q.354.883.682,1.777a83.667,83.667,0,0,1,3.612,13.445q.327,1.743.6,3.5.122.782.233,1.565c0-.013.172,1.273.081.58-.08-.618.058.467.072.582.3,2.435.543,4.879.737,7.325.381,4.8.584,9.61.73,14.421.371,12.205.686,24.412,1.029,36.618l2.1,74.764,2.1,74.764.26,9.281a4.5,4.5,0,1,0,9,0l-2.155-76.827-2.14-76.311L740.812,513.5c-.288-10.285-.7-20.56-2.286-30.742-2.915-18.753-11.385-38.248-29.492-46.763-16.912-7.953-37.841-6.108-52.658,5.456a41.376,41.376,0,0,0-4.612,4.182A4.5,4.5,0,0,0,658.128,452Z" transform="translate(-343 -144.282)" fill="#6c63ff"/>
    <path id="Path_11" data-name="Path 11" d="M692,593.718a5.006,5.006,0,0,0-5,5l10,151.935a5.023,5.023,0,0,0,5,5.065h82a5.006,5.006,0,0,0,5-5l10-152.065a5,5,0,0,0-5-4.935Z" transform="translate(-343 -144.282)" fill="#e6e6e6"/>
    <path id="Path_12" data-name="Path 12" d="M699.916,601.218a5,5,0,0,0-4.988,5.334l9.194,137a5.014,5.014,0,0,0,4.988,4.666H776.89a5.014,5.014,0,0,0,4.988-4.666l9.194-137a5,5,0,0,0-4.988-5.334Z" transform="translate(-343 -144.282)" fill="#6c63ff"/>
    <path id="Path_13" data-name="Path 13" d="M730,624.718a2,2,0,0,0-2,2v11a2,2,0,0,0,2,2h17a2,2,0,0,0,2-2v-11a2,2,0,0,0-2-2Z" transform="translate(-343 -144.282)" fill="#e6e6e6"/>
    <path id="Path_14" data-name="Path 14" d="M749,653.718a2,2,0,0,0-2,2v11a2,2,0,0,0,2,2h17a2,2,0,0,0,2-2v-11a2,2,0,0,0-2-2Z" transform="translate(-343 -144.282)" fill="#e6e6e6"/>
    <path id="Path_15" data-name="Path 15" d="M731,677.718a2,2,0,0,0-2,2v11a2,2,0,0,0,2,2h17a2,2,0,0,0,2-2v-11a2,2,0,0,0-2-2Z" transform="translate(-343 -144.282)" fill="#e6e6e6"/>
    <path id="Path_16" data-name="Path 16" d="M408.029,619.878c5.2,1.726,8.868,6.153,11.917,10.493,3.143,4.473,6.024,9.331,10.319,12.825a16.864,16.864,0,0,0,13.278,3.992c4.71-.71,8.7-4,9.419-8.859.943-6.4-3.533-12.314-7.459-16.864l-1.061,2.561c6.256.675,11.695,4.241,17.423,6.536,5.489,2.2,11.981,3.4,17.464.532,4.207-2.2,6.83-6.6,7.719-11.164a22.963,22.963,0,0,0-2.164-14.619c-2.919-5.968-7.705-10.791-12.348-15.435l-1.459,2.507c6.9,1.036,14.6,2,20.588-2.433a12.205,12.205,0,0,0,4.813-7.025,13.576,13.576,0,0,0-1.467-9.2c-3.149-6.133-9.093-10.457-14.422-14.57a210.268,210.268,0,0,0-40.158-24.41c-1.74-.809-3.265,1.776-1.514,2.59a211.455,211.455,0,0,1,34.771,20.381c5.251,3.8,10.8,7.712,15.176,12.528,3.715,4.089,7.1,10.343,3.041,15.4-4.772,5.946-13.408,4.839-20.03,3.844A1.513,1.513,0,0,0,470.417,592c6.92,6.923,15.138,15.234,13.934,25.889-.456,4.039-2.373,8.165-5.967,10.3-4.886,2.9-11,1.409-15.918-.6-5.975-2.437-11.479-5.858-18.022-6.563-1.41-.152-1.818,1.683-1.061,2.561,3.175,3.679,6.983,8.465,6.7,13.623-.236,4.316-4,6.9-8.034,7.142-10.265.621-15.447-10.066-20.651-17.074-3.294-4.435-7.2-8.51-12.571-10.291-1.837-.609-2.624,2.287-.8,2.893Z" transform="translate(-343 -144.282)" fill="#6c63ff"/>
  </g>
</svg>
